<svg xmlns="http://www.w3.org/2000/svg" xml:space="preserve" width="2000" height="176" data-id="lg_b861UHAY2tJMmGLMlw" data-version="1" viewBox="0 0 2000 176"><g data-padding="20"><g transform="translate(10 3.154)scale(.96416)"><rect width="412.821" height="80.23" x="555.634" y="-40.154" fill="none" rx="0" ry="0" transform="matrix(.98 0 0 .98 206.72 68.89)"/><path fill="#fff" d="M762.613 54.032v-17.64h51.47v17.64h-15.14v36.73h-21.18v-36.73Zm77.55-5.57v19.7q0 4.36.77 6.8.76 2.43 2 3.4 1.25.97 2.64.97 2.04 0 2.67-1.24t.63-3.22v-26.41h20.22v42.31h-11.16l-4.87-6.64q-2.82 3.88-7.64 6.06t-9.96 2.18q-4.25 0-7.83-1.79-3.57-1.79-5.7-5.16t-2.13-8.1v-28.86Zm66.01 42.3v-20.43q0-5.55-1.61-7.96-1.62-2.42-4.38-2.42-1.53 0-2.12 1.29-.6 1.3-.6 3.1v26.42h-20.22v-42.31h11.17l4.86 6.6q2.83-3.85 7.63-6.03 4.8-2.17 9.94-2.17 4.29 0 7.86 1.78 3.58 1.79 5.7 5.16 2.13 3.37 2.13 8.1v28.87Zm48.72 1.27q-4.12 0-8.04-1.3-3.91-1.29-7.08-3.86-3.16-2.57-5.03-6.35-1.88-3.78-1.88-8.78 0-6.23 2.23-10.91t6.04-7.8q3.82-3.11 8.65-4.68 4.84-1.56 10.04-1.56 6.61 0 10.74 2.01 4.14 2 6.08 5.17t1.94 6.67q0 3.78-2.42 7.32-2.41 3.54-7.09 5.82-4.69 2.28-11.53 2.28-.64 0-1.72-.01-1.07-.02-1.85-.06 0 2.15 1.02 3.1 1.02.96 2.57 1.19 1.55.24 3.11.24 1.4 0 3.94-.46 2.53-.46 5.49-1.68 2.97-1.23 5.62-3.51l2.11 10.59q-4.02 3.47-10.16 5.02t-12.78 1.55m-.92-23.8 7.45-1.67.65-5.2q0-.21.03-.39.04-.19.04-.4 0-2.99-2.79-2.99-2.42.2-3.37 1.65-.96 1.45-1.23 3.78t-.78 5.22m51.09-34.76v57.29h-19.3v-57.29Zm19.1-4.62q4.83 0 7.13 2.18 2.3 2.17 2.3 5 0 2.11-1.31 4.17t-3.83 3.4q-2.52 1.35-6.16 1.35-5.24 0-7.37-2.13t-2.13-4.82q0-2.17 1.26-4.27 1.26-2.09 3.8-3.49 2.53-1.39 6.31-1.39m8.85 19.61v42.31h-19.71v-42.31Zm37.16 42.3v-20.43q0-5.55-1.61-7.96-1.62-2.42-4.38-2.42-1.53 0-2.12 1.29-.6 1.3-.6 3.1v26.42h-20.22v-42.31h11.16l4.87 6.6q2.83-3.85 7.63-6.03 4.8-2.17 9.94-2.17 4.29 0 7.86 1.78 3.58 1.79 5.7 5.16 2.13 3.37 2.13 8.1v28.87Zm28.37-57.29h17.63v27.6l8.04-12.62h20.05l-13.04 18.48 15.15 23.83h-20.77l-8.51-13.72q-.13.24-.32.56t-.26.6v12.56h-17.97Z"/><rect width="569.315" height="33.9" x="477.386" y="-16.989" fill="none" rx="0" ry="0" transform="matrix(.98 0 0 .98 280 159.49)"/><path fill="#e8c900" d="M777.233 148.102h-2.8l-5.33 9.54-5.3-9.54h-2.8l6.87 11.75v8.87h2.5v-8.9Zm20.51 10.31q0-2.33 1.01-4.16 1.02-1.82 2.79-2.88 1.76-1.06 4-1.06 2.27 0 4.02 1.06 1.76 1.06 2.77 2.88 1.02 1.83 1.02 4.16 0 2.32-1.02 4.15-1.01 1.83-2.77 2.89-1.75 1.06-4.02 1.06-2.24 0-4-1.06-1.77-1.06-2.79-2.89-1.01-1.83-1.01-4.15m-2.66 0q0 2.24.79 4.18.78 1.94 2.19 3.37t3.33 2.24q1.91.81 4.15.81 2.27 0 4.17-.81t3.31-2.24q1.42-1.43 2.2-3.37t.78-4.18q0-2.27-.78-4.2t-2.2-3.36q-1.41-1.43-3.31-2.24t-4.17-.81q-2.24 0-4.15.81-1.92.81-3.33 2.24t-2.19 3.36q-.79 1.93-.79 4.2m43.34-10.31h-2.51v13.84q0 1.53.49 2.83.48 1.3 1.41 2.24t2.23 1.47q1.29.53 2.88.53t2.89-.53 2.22-1.47q.93-.94 1.42-2.24.48-1.3.48-2.83v-13.84h-2.5v13.84q0 2.12-1.15 3.42t-3.36 1.3-3.35-1.3q-1.15-1.3-1.15-3.42Zm39.09 10.45h-2.8l7.07 10.17h3.09Zm-3.98-10.45h-2.5v20.62h2.5Zm-1.12 0v2.21h4.21q1.33 0 2.34.47 1.02.47 1.6 1.35.57.89.57 2.15 0 1.27-.57 2.15-.58.89-1.6 1.36-1.01.47-2.34.47h-4.21v2.21h4.21q2.01 0 3.58-.75 1.58-.75 2.51-2.15.92-1.4.92-3.29 0-1.91-.92-3.3-.93-1.38-2.51-2.13-1.57-.75-3.58-.75Zm66.57 10.16v2.36h6.87q-.27 1.2-.84 2.26-.58 1.07-1.46 1.89t-2.11 1.28q-1.22.46-2.75.46-2.18 0-3.95-1.03t-2.81-2.86q-1.05-1.83-1.05-4.21 0-2.42 1.05-4.23 1.04-1.81 2.81-2.84t3.95-1.03q2.36 0 4.09.92 1.74.93 2.71 2.58l1.77-1.62q-.88-1.44-2.16-2.41-1.29-.98-2.89-1.48-1.61-.5-3.52-.5-2.24 0-4.15.78-1.92.78-3.33 2.21-1.42 1.43-2.2 3.38-.78 1.94-.78 4.24 0 2.29.78 4.24.78 1.94 2.2 3.37 1.41 1.43 3.33 2.21 1.91.78 4.15.78 2.36 0 4.2-.87t3.1-2.37q1.27-1.5 1.92-3.43t.65-4.08Zm31.17 8.1v2.36h10.4v-2.36Zm0-18.26v2.35h10.4v-2.35Zm0 8.25v2.35h9.81v-2.35Zm1.12-8.25h-2.5v20.62h2.5Zm33.07 12.06-.88 2.36h10.9l-.89-2.36Zm1.03.77 3.48-8.19 3.53 8.31.24.59 3 7.07h2.8l-9.57-21.65-9.58 21.65h2.8l3.07-7.25Zm38.57-2.38h-2.8l7.07 10.17h3.1Zm-3.98-10.45h-2.5v20.62h2.5Zm-1.12 0v2.21h4.22q1.32 0 2.34.47t1.59 1.35q.57.89.57 2.15 0 1.27-.57 2.15-.57.89-1.59 1.36t-2.34.47h-4.22v2.21h4.22q2 0 3.58-.75 1.57-.75 2.5-2.15t.93-3.29q0-1.91-.93-3.3-.93-1.38-2.5-2.13-1.58-.75-3.58-.75Zm59.51 0h-2.51v20.62h2.51Zm22 14.37-2 1.36q.68 1.35 1.75 2.55 1.08 1.19 2.51 1.91t3.1.72q1.24 0 2.38-.41 1.13-.41 2.03-1.18.9-.76 1.41-1.85.52-1.09.52-2.45 0-1.41-.5-2.43t-1.28-1.74q-.79-.72-1.7-1.19t-1.74-.77q-1.79-.62-2.84-1.25-1.04-.63-1.49-1.35-.44-.73-.44-1.58 0-1 .77-1.81.76-.81 2.44-.81 1.21 0 2.05.47t1.43 1.21q.59.73.97 1.5l2.15-1.24q-.5-1.09-1.38-2.07-.89-.99-2.14-1.62-1.25-.64-2.93-.64-1.74 0-3.09.69-1.36.7-2.12 1.9-.77 1.21-.77 2.74 0 1.42.54 2.39.55.97 1.4 1.64.86.66 1.8 1.09.94.42 1.71.69 1.18.41 2.22.93 1.05.51 1.7 1.34.65.82.65 2.21 0 1.41-1.01 2.32-1 .92-2.65.92-1.23 0-2.21-.53-.97-.54-1.75-1.48t-1.49-2.18m58.65-6.12v2.35h14.14v-2.35Zm14.97-8.25h-2.51v20.62h2.51Zm-13.85 0h-2.5v20.62h2.5Zm36.47 18.26v2.36h10.4v-2.36Zm0-18.26v2.35h10.4v-2.35Zm0 8.25v2.35h9.81v-2.35Zm1.12-8.25h-2.5v20.62h2.5Zm36.7 10.45h-2.79l7.07 10.17h3.09Zm-3.97-10.45h-2.51v20.62h2.51Zm-1.12 0v2.21h4.21q1.33 0 2.34.47 1.02.47 1.59 1.35.58.89.58 2.15 0 1.27-.58 2.15-.57.89-1.59 1.36-1.01.47-2.34.47h-4.21v2.21h4.21q2 0 3.58-.75t2.5-2.15q.93-1.4.93-3.29 0-1.91-.93-3.3-.92-1.38-2.5-2.13t-3.58-.75Zm33.02 18.26v2.36h10.4v-2.36Zm0-18.26v2.35h10.4v-2.35Zm0 8.25v2.35h9.81v-2.35Zm1.12-8.25h-2.51v20.62h2.51Z"/><path fill="#eade8e" d="M1277.967.85a4.98 4.98 0 0 0-4.493-.642l-55.177 19.322a4.98 4.98 0 0 0-3.315 4.677v51.68a17 17 0 0 0-7.27-1.677c-9.478 0-17.16 7.683-17.16 17.16s7.682 17.162 17.16 17.162 17.161-7.684 17.161-17.161l-.026-.21.04-.17V27.718l45.26-15.851v44.317a17 17 0 0 0-7.245-1.65c-9.209.36-16.49 7.93-16.49 17.147s7.281 16.788 16.49 17.148c9.46 0 17.161-7.703 17.161-17.16V4.897a4.98 4.98 0 0 0-2.096-4.035m-70.254 97.753a7.257 7.257 0 1 1 .013-14.515 7.257 7.257 0 0 1 0 14.515m55.19-19.69c-3.995 0-7.257-3.261-7.257-7.244s3.262-7.244 7.257-7.244a7.257 7.257 0 0 1 0 14.489"/></g><path fill="transparent" stroke="transparent" d="M721 0h558v176H721z"/></g></svg>