<svg xmlns="http://www.w3.org/2000/svg" xml:space="preserve" viewBox="720 0 560 114">
    <g data-padding="20">
        <g transform="translate(10 2.036)scale(.96429)">
            <rect width="412.821" height="80.23" x="511.547" y="-40.473" fill="none" rx="0" ry="0" transform="translate(214.8 72.84)scale(1.04)"/>
            <path fill="#fff" d="M759.055 56.768v-18.64h54.42v18.64h-16.02v38.84h-22.38v-38.84Zm81.98-5.89v20.84q0 4.61.81 7.18t2.13 3.6q1.31 1.02 2.79 1.02 2.16 0 2.82-1.31.67-1.31.67-3.4v-27.93h21.37v44.74h-11.8l-5.15-7.02q-2.98 4.1-8.08 6.4-5.09 2.31-10.52 2.31-4.5 0-8.28-1.89t-6.03-5.45q-2.25-3.57-2.25-8.57v-30.52Zm69.79 44.73v-21.6q0-5.86-1.71-8.42-1.71-2.55-4.63-2.55-1.62 0-2.25 1.36-.63 1.37-.63 3.28v27.93h-21.37v-44.74h11.8l5.15 6.98q2.98-4.06 8.06-6.37 5.07-2.3 10.51-2.3 4.53 0 8.31 1.89t6.03 5.45q2.25 3.57 2.25 8.57v30.52Zm51.5 1.34q-4.36 0-8.5-1.37t-7.48-4.08q-3.35-2.72-5.33-6.72-1.98-3.99-1.98-9.28 0-6.59 2.36-11.54 2.36-4.94 6.39-8.24 4.03-3.29 9.14-4.95 5.11-1.65 10.62-1.65 6.98 0 11.35 2.12 4.37 2.13 6.42 5.47 2.06 3.35 2.06 7.06 0 3.99-2.56 7.73-2.55 3.75-7.5 6.16t-12.19 2.41q-.68 0-1.81-.02-1.14-.02-1.96-.05 0 2.26 1.08 3.27 1.07 1.01 2.71 1.26t3.3.25q1.47 0 4.15-.48 2.68-.49 5.81-1.78 3.14-1.3 5.94-3.71l2.23 11.19q-4.24 3.67-10.74 5.31-6.49 1.64-13.51 1.64m-.97-25.16 7.88-1.76.68-5.51q0-.21.04-.41.03-.2.03-.42 0-3.16-2.95-3.16-2.55.21-3.56 1.74t-1.3 4q-.28 2.46-.82 5.52m54.02-36.74v60.57h-20.41v-60.57Zm20.19-4.91q5.11 0 7.53 2.31 2.43 2.3 2.43 5.29 0 2.23-1.38 4.4-1.39 2.18-4.05 3.6-2.66 1.43-6.51 1.43-5.55 0-7.8-2.25t-2.25-5.1q0-2.3 1.34-4.51 1.33-2.22 4.01-3.69 2.68-1.48 6.68-1.48m9.35 20.73v44.74h-20.84v-44.74Zm39.31 44.74v-21.6q0-5.86-1.71-8.42-1.71-2.55-4.62-2.55-1.62 0-2.25 1.36-.63 1.37-.63 3.28v27.93h-21.38v-44.74h11.81l5.14 6.98q2.99-4.06 8.06-6.37 5.08-2.3 10.51-2.3 4.54 0 8.32 1.89t6.02 5.45q2.25 3.57 2.25 8.57v30.52Zm29.98-60.56h18.64v29.18l8.5-13.35h21.19l-13.78 19.54 16.02 25.2h-21.96l-8.99-14.51q-.15.25-.35.6-.19.34-.27.63v13.28h-19Z"/>
            <path fill="#eade8e" d="M1304.317.763a5.24 5.24 0 0 0-4.733-.676l-58.126 20.355a5.24 5.24 0 0 0-3.491 4.926v54.441a17.9 17.9 0 0 0-7.66-1.766c-9.983 0-18.077 8.093-18.077 18.078s8.094 18.078 18.078 18.078 18.078-8.094 18.078-18.078l-.028-.221.042-.18V29.068l47.679-16.698v46.685a17.9 17.9 0 0 0-7.632-1.739c-9.701.38-17.371 8.355-17.371 18.064s7.67 17.685 17.37 18.065c9.965 0 18.079-8.115 18.079-18.078V5.027a5.24 5.24 0 0 0-2.208-4.25m-74.01 102.975a7.645 7.645 0 1 1 .015-15.29 7.645 7.645 0 0 1 0 15.29m58.14-20.741c-4.21 0-7.646-3.436-7.646-7.632s3.436-7.631 7.645-7.631a7.645 7.645 0 0 1 0 15.263"/>
        </g>
    </g>
</svg>